<?xml version="1.0" encoding="utf-8"?>
<!-- Generator: Adobe Illustrator 16.0.0, SVG Export Plug-In . SVG Version: 6.00 Build 0)  -->
<!DOCTYPE svg PUBLIC "-//W3C//DTD SVG 1.1//EN" "http://www.w3.org/Graphics/SVG/1.1/DTD/svg11.dtd">
<svg version="1.1" id="Layer_1" xmlns="http://www.w3.org/2000/svg" xmlns:xlink="http://www.w3.org/1999/xlink" x="0px" y="0px"
	 width="1200px" height="1200px" viewBox="0 0 1200 1200" enable-background="new 0 0 1200 1200" xml:space="preserve">
<rect x="0" fill="none" width="1200" height="1199.998"/>
<path opacity="0.1" enable-background="new    " d="M600.8,994.945c30.274-10.686,70.316-9.989,89.396,1.546
	c19.086,11.537,10.001,29.553-20.304,40.235c-30.276,10.681-70.306,9.992-89.394-1.545
	C561.422,1023.643,570.514,1005.632,600.8,994.945z"/>
<path opacity="0.1" enable-background="new    " d="M941.127,823.229c-8.945,0-16.489,5.962-18.898,14.119
	c-3.109-0.789-6.324-1.286-9.633-1.476v-13.517c0-10.885-8.833-19.723-19.722-19.723c-10.881,0-19.716,8.839-19.716,19.723v13.364
	h-9.496v-31.326c0-10.891-8.836-19.714-19.718-19.714c-10.889,0-19.716,8.823-19.716,19.714v31.436
	c-3.256,0.137-6.43,0.562-9.502,1.277v-93.665c0-10.883-8.829-19.716-19.718-19.716c-10.885,0-19.712,8.833-19.712,19.716v141.276
	c-0.037,0.736-0.114,1.466-0.114,2.212v49.136l-9.09-9.09v-39.379c0-16.081-13.03-29.117-29.124-29.117h-9.687
	c-0.416,0-0.808,0.05-1.219,0.077v36.467c-0.064-0.012-0.126-0.028-0.19-0.036v48.393l65.296,65.28v-1.385
	c9.182,8.721,21.563,14.104,35.226,14.104h83.229c28.284,0,51.218-22.932,51.218-51.222v-34.221v-49.007v-43.986
	C960.84,832.062,952.02,823.229,941.127,823.229z"/>
<path opacity="0.1" enable-background="new    " d="M930.224,363.43c-8.096-7.204-18.006-11.267-28.505-12.496
	c-0.37-0.045-0.738-0.087-1.107-0.124c-20.068-1.953-42.178,6.542-58.158,24.513c-15.995,17.975-21.856,40.938-17.569,60.648
	c0.076,0.341,0.155,0.679,0.238,1.021c2.439,10.296,7.631,19.678,15.737,26.889c23.796,21.179,63.098,15.849,87.766-11.885
	C953.31,424.26,954.021,384.608,930.224,363.43z"/>
<path opacity="0.1" enable-background="new    " d="M892.809,282.953H406.745c-2.054,0-3.713,1.661-3.713,3.711v35.814v128.706
	v186.611v258.59v82.557c0,2.05,1.66,3.71,3.713,3.71h486.063c2.04,0,3.703-1.66,3.703-3.71v-82.557v-258.59V451.185V322.479v-35.814
	C896.512,284.613,894.85,282.953,892.809,282.953z"/>
<path fill="#FFFFFF" d="M868.815,957.958c0,2.043-1.663,3.709-3.703,3.709H379.048c-2.054,0-3.714-1.666-3.714-3.709V265.679
	c0-2.051,1.66-3.711,3.714-3.711h486.064c2.039,0,3.703,1.66,3.703,3.711V957.958z"/>
<path fill="#C5E0EF" d="M868.815,301.492v-35.814c0-2.051-1.663-3.711-3.703-3.711H379.048c-2.054,0-3.714,1.66-3.714,3.711v35.814
	H868.815z"/>
<path fill="#C5E0EF" d="M375.334,875.4v82.558c0,2.049,1.66,3.709,3.714,3.709h486.064c2.039,0,3.703-1.659,3.703-3.709V875.4
	H375.334z"/>
<rect x="375.334" y="430.198" fill="#2DAEB7" width="493.481" height="186.613"/>
<rect x="487.516" y="487.963" fill="#C5E0EF" width="268.146" height="17.608"/>
<rect x="458.903" y="522.73" fill="#C5E0EF" width="325.381" height="4.404"/>
<rect x="445.702" y="538.689" fill="#C5E0EF" width="351.771" height="4.403"/>
<rect x="488.829" y="554.64" fill="#C5E0EF" width="265.525" height="4.407"/>
<rect x="556.056" y="340.908" fill="#C5E0EF" width="132.034" height="31.197"/>
<rect x="438.266" y="389.51" fill="#8FC4D7" width="65.337" height="4.404"/>
<rect x="513.838" y="389.51" fill="#8FC4D7" width="65.333" height="4.404"/>
<rect x="589.404" y="389.51" fill="#8FC4D7" width="65.349" height="4.404"/>
<rect x="664.976" y="389.51" fill="#8FC4D7" width="65.346" height="4.404"/>
<rect x="740.54" y="389.51" fill="#8FC4D7" width="65.354" height="4.404"/>
<polygon fill="#FFFFFF" points="843.326,532.854 840.126,530.524 845.23,523.505 840.126,516.486 843.326,514.155 850.126,523.505 
	"/>
<polygon fill="#FFFFFF" points="847.679,525.486 829.557,525.486 829.557,521.524 847.679,521.524 "/>
<polygon fill="#FFFFFF" points="400.833,532.854 394.034,523.505 400.833,514.155 404.036,516.486 398.93,523.505 404.036,530.524 
	"/>
<polygon fill="#FFFFFF" points="414.603,525.486 396.481,525.486 396.481,521.524 414.603,521.524 "/>
<rect x="416.761" y="642.359" fill="#C5E0EF" width="119.542" height="119.548"/>
<path fill="#8FC4D7" d="M534.322,644.34v115.587h-115.58V644.34H534.322 M538.284,640.379H414.78V763.89h123.504L538.284,640.379
	L538.284,640.379z"/>
<path fill="#8FC4D7" d="M418.741,761.905c-0.506,0-1.014-0.193-1.4-0.581c-0.774-0.774-0.774-2.026,0-2.801l115.58-115.573
	c0.771-0.777,2.029-0.777,2.801,0c0.773,0.774,0.773,2.025,0,2.799l-115.58,115.575
	C419.755,761.712,419.247,761.905,418.741,761.905L418.741,761.905z"/>
<path fill="#8FC4D7" d="M534.322,761.905c-0.505,0-1.014-0.193-1.4-0.581l-115.58-115.575c-0.774-0.774-0.774-2.025,0-2.799
	c0.771-0.777,2.028-0.777,2.8,0l115.58,115.574c0.773,0.774,0.773,2.026,0,2.8C535.337,761.712,534.827,761.905,534.322,761.905
	L534.322,761.905z"/>
<rect x="562.307" y="642.359" fill="#C5E0EF" width="119.54" height="119.548"/>
<path fill="#8FC4D7" d="M679.868,644.34v115.587h-115.58V644.34H679.868 M683.83,640.379H560.326V763.89H683.83V640.379
	L683.83,640.379z"/>
<path fill="#8FC4D7" d="M564.289,761.905c-0.505,0-1.015-0.193-1.4-0.581c-0.774-0.774-0.774-2.026,0-2.801l115.58-115.573
	c0.772-0.777,2.03-0.777,2.8,0c0.773,0.774,0.773,2.025,0,2.799l-115.58,115.575C565.304,761.712,564.794,761.905,564.289,761.905
	L564.289,761.905z"/>
<path fill="#8FC4D7" d="M679.868,761.905c-0.506,0-1.014-0.193-1.399-0.581L562.888,645.749c-0.774-0.774-0.774-2.025,0-2.799
	c0.771-0.777,2.029-0.777,2.799,0l115.58,115.574c0.773,0.774,0.773,2.026,0,2.8C680.883,761.712,680.373,761.905,679.868,761.905
	L679.868,761.905z"/>
<rect x="710.155" y="644.671" fill="#C2D64C" width="114.934" height="114.927"/>
<path fill="#A8B442" d="M820.797,648.962v106.342H714.445V648.962H820.797 M829.381,640.379H705.863V763.89h123.519V640.379
	L829.381,640.379z"/>
<path fill="none" d="M709.835,759.924"/>
<path fill="none" d="M825.41,644.35"/>
<rect x="414.78" y="789.065" fill="#C5E0EF" width="120.978" height="4.401"/>
<rect x="414.78" y="800.509" fill="#C5E0EF" width="110.085" height="4.401"/>
<rect x="414.78" y="811.948" fill="#C5E0EF" width="120.978" height="4.407"/>
<rect x="414.78" y="823.391" fill="#C5E0EF" width="96.55" height="4.405"/>
<rect x="414.78" y="778.171" fill="#8FC4D7" width="65.346" height="4.406"/>
<rect x="414.78" y="914.73" fill="#8FC4D7" width="120.978" height="4.396"/>
<rect x="414.78" y="923.312" fill="#8FC4D7" width="110.085" height="4.398"/>
<rect x="414.78" y="903.831" fill="#8FC4D7" width="65.346" height="4.405"/>
<rect x="560.326" y="789.065" fill="#C5E0EF" width="120.979" height="4.401"/>
<rect x="560.326" y="800.509" fill="#C5E0EF" width="110.084" height="4.401"/>
<rect x="560.326" y="811.948" fill="#C5E0EF" width="120.979" height="4.407"/>
<rect x="560.326" y="823.391" fill="#C5E0EF" width="96.551" height="4.405"/>
<rect x="560.326" y="778.171" fill="#8FC4D7" width="65.343" height="4.406"/>
<rect x="705.863" y="789.065" fill="#C5E0EF" width="120.987" height="4.401"/>
<rect x="705.863" y="800.509" fill="#C5E0EF" width="110.097" height="4.401"/>
<rect x="705.863" y="811.948" fill="#C5E0EF" width="120.987" height="4.407"/>
<rect x="705.863" y="823.391" fill="#C5E0EF" width="96.562" height="4.405"/>
<rect x="705.863" y="778.171" fill="#A8B442" width="65.349" height="4.406"/>
<path fill="#8FC4D7" d="M829.381,915.776c0,5.652-4.58,10.233-10.241,10.233c-5.646,0-10.228-4.581-10.228-10.233
	c0-5.653,4.583-10.233,10.228-10.233C824.801,905.543,829.381,910.123,829.381,915.776z"/>
<path fill="#8FC4D7" d="M802.971,915.776c0,5.652-4.576,10.233-10.233,10.233c-5.646,0-10.229-4.581-10.229-10.233
	c0-5.653,4.583-10.233,10.229-10.233C798.395,905.543,802.971,910.123,802.971,915.776z"/>
<path fill="#8FC4D7" d="M776.565,915.776c0,5.652-4.578,10.233-10.238,10.233c-5.648,0-10.227-4.581-10.227-10.233
	c0-5.653,4.578-10.233,10.227-10.233C771.987,905.543,776.565,910.123,776.565,915.776z"/>
<path fill="#B1BE46" d="M439.091,281.38c0,3.496-2.834,6.329-6.32,6.329c-3.497,0-6.335-2.833-6.335-6.329s2.839-6.324,6.335-6.324
	C436.256,275.056,439.091,277.884,439.091,281.38z"/>
<path fill="#FFC907" d="M418.429,281.38c0,3.496-2.825,6.329-6.321,6.329c-3.496,0-6.32-2.833-6.32-6.329s2.824-6.324,6.32-6.324
	C415.603,275.056,418.429,277.884,418.429,281.38z"/>
<path fill="#FD6120" d="M397.785,281.38c0,3.496-2.84,6.329-6.338,6.329c-3.499,0-6.324-2.833-6.324-6.329s2.826-6.324,6.324-6.324
	C394.945,275.056,397.785,277.884,397.785,281.38z"/>
<rect x="505.465" y="994.032" fill="#FFF200" width="9.166" height="14.463"/>
<rect x="618.875" y="994.032" fill="#FFF200" width="9.171" height="14.463"/>
<path fill="#FEC011" d="M628.046,1007.947c0,13.802-27.445,25.005-61.291,25.005c-33.863,0-61.292-11.202-61.292-25.005
	s27.429-24.992,61.292-24.992C600.601,982.955,628.046,994.145,628.046,1007.947z"/>
<path fill="#F6871F" d="M628.046,994.426c0,13.806-27.445,24.998-61.291,24.998c-33.863,0-61.292-11.192-61.292-24.998
	s27.429-24.997,61.292-24.997C600.601,969.43,628.046,980.62,628.046,994.426z"/>
<path fill="#FFF200" d="M615.026,990.899c0,8.917-21.617,16.149-48.269,16.149c-26.669,0-48.272-7.232-48.272-16.149
	c0-8.924,21.603-16.158,48.272-16.158C593.409,974.741,615.026,981.976,615.026,990.899z"/>
<rect x="498.697" y="970.876" fill="#FFF200" width="9.166" height="14.471"/>
<rect x="612.114" y="970.876" fill="#FFF200" width="9.172" height="14.471"/>
<path fill="#FEC011" d="M621.285,984.791c0,13.801-27.44,25.005-61.29,25.005c-33.853,0-61.3-11.204-61.3-25.005
	c0-13.808,27.446-25.002,61.3-25.002C593.845,959.789,621.285,970.983,621.285,984.791z"/>
<path fill="#F6871F" d="M621.285,971.275c0,13.809-27.44,25-61.29,25c-33.853,0-61.3-11.191-61.3-25c0-13.811,27.446-25,61.3-25
	C593.845,946.277,621.285,957.465,621.285,971.275z"/>
<path fill="#FFF200" d="M608.26,967.745c0,8.917-21.605,16.152-48.263,16.152c-26.669,0-48.272-7.236-48.272-16.152
	c0-8.926,21.603-16.156,48.272-16.156C586.655,951.589,608.26,958.819,608.26,967.745z"/>
<rect x="507.382" y="948.682" fill="#FFF200" width="9.177" height="14.473"/>
<rect x="620.799" y="948.682" fill="#FFF200" width="9.165" height="14.473"/>
<path fill="#FEC011" d="M629.964,962.601c0,13.815-27.427,25.006-61.274,25.006c-33.862,0-61.307-11.191-61.307-25.006
	c0-13.796,27.445-24.992,61.307-24.992C602.537,937.608,629.964,948.805,629.964,962.601z"/>
<path fill="#F6871F" d="M629.964,949.079c0,13.806-27.427,25.006-61.274,25.006c-33.862,0-61.307-11.201-61.307-25.006
	s27.445-24.996,61.307-24.996C602.537,924.083,629.964,935.274,629.964,949.079z"/>
<path fill="#FEC011" d="M616.94,945.551c0,8.915-21.604,16.161-48.25,16.161c-26.673,0-48.281-7.246-48.281-16.161
	c0-8.926,21.608-16.155,48.281-16.155C595.336,929.395,616.94,936.624,616.94,945.551z"/>
<g>
	<g>
		<defs>
			<path id="SVGID_1_" d="M629.942,948.682c-0.524-13.622-27.74-24.599-61.252-24.599c-33.541,0-60.755,10.977-61.28,24.599h-0.027
				v9.764c-5.349,3.642-8.484,7.89-8.658,12.43h-0.028v14.471h0.034c0.213,3.903,2.607,7.59,6.735,10.858v12.289h0.033
				c0.722,13.554,27.854,24.458,61.258,24.458c33.393,0,60.538-10.904,61.257-24.458h0.033V994.03h-0.027
				c-0.15-3.965-2.56-7.706-6.733-11.019v-7.58c5.293-3.603,8.404-7.794,8.65-12.278h0.028v-14.473L629.942,948.682L629.942,948.682
				z"/>
		</defs>
		<clipPath id="SVGID_2_">
			<use xlink:href="#SVGID_1_"  overflow="visible"/>
		</clipPath>
		<path opacity="0.1" clip-path="url(#SVGID_2_)" enable-background="new    " d="M684.264,976.55
			c7.13,31.618-13.85,63.292-46.875,70.738c-33.021,7.442-65.575-12.16-72.707-43.779c-7.13-31.618,13.867-63.28,46.889-70.725
			C644.592,925.341,677.132,944.927,684.264,976.55z"/>
	</g>
</g>
<path fill="#FEC011" d="M694.87,973.672c0,34.906-28.298,63.217-63.214,63.217c-34.923,0-63.229-28.311-63.229-63.217
	c0-34.911,28.307-63.219,63.229-63.219C666.573,910.453,694.87,938.761,694.87,973.672z"/>
<path fill="#F6871F" d="M692.944,973.672c0,33.84-27.436,61.288-61.285,61.288c-33.851,0-61.296-27.448-61.296-61.288
	c0-33.854,27.445-61.281,61.296-61.281C665.508,912.391,692.944,939.817,692.944,973.672z"/>
<path fill="#FEC011" d="M679.921,973.672c0,26.65-21.611,48.262-48.265,48.262c-26.658,0-48.275-21.611-48.275-48.262
	c0-26.652,21.617-48.264,48.275-48.264C658.31,925.408,679.921,947.02,679.921,973.672z"/>
<path fill="#F6871F" d="M628.254,1002.019c-3.196-0.294-6.116-1.087-8.746-2.38c-2.648-1.278-4.909-2.918-6.836-4.907l2.103-3.258
	c0.189-0.3,0.48-0.528,0.815-0.716c0.331-0.192,0.7-0.283,1.06-0.283c0.517,0,1.071,0.255,1.71,0.758
	c0.646,0.511,1.432,1.082,2.356,1.728c0.927,0.65,2.028,1.28,3.325,1.897c1.279,0.609,2.819,1.011,4.622,1.221l1.481-21.119
	c-1.854-0.559-3.678-1.174-5.466-1.886c-1.801-0.702-3.393-1.622-4.829-2.742c-1.409-1.143-2.548-2.551-3.415-4.274
	c-0.845-1.709-1.286-3.852-1.286-6.437c0-1.939,0.375-3.838,1.13-5.699c0.751-1.831,1.851-3.479,3.309-4.911
	c1.431-1.439,3.225-2.621,5.349-3.527c2.101-0.909,4.566-1.381,7.312-1.381l0.389-5.799c0.066-0.51,0.268-0.96,0.592-1.354
	c0.35-0.396,0.818-0.591,1.401-0.591h2.618l-0.545,7.87c2.784,0.346,5.178,1.053,7.205,2.149c2.011,1.085,3.807,2.401,5.405,3.928
	l-1.717,2.632c-0.537,0.796-1.146,1.193-1.828,1.193c-0.374,0-0.815-0.165-1.383-0.504c-0.535-0.321-1.182-0.71-1.965-1.151
	c-0.771-0.438-1.653-0.865-2.653-1.308c-1.017-0.438-2.178-0.75-3.454-0.932l-1.33,19.249c1.912,0.58,3.789,1.225,5.647,1.91
	c1.869,0.688,3.523,1.585,5.009,2.688c1.499,1.078,2.705,2.444,3.594,4.082c0.939,1.626,1.388,3.674,1.388,6.129
	c0,2.391-0.402,4.641-1.196,6.736c-0.788,2.103-1.957,3.956-3.472,5.553c-1.52,1.59-3.411,2.899-5.605,3.886
	c-2.219,1.006-4.745,1.508-7.585,1.508l-0.47,7.111c-0.057,0.503-0.267,0.953-0.627,1.336c-0.355,0.379-0.814,0.567-1.355,0.567
	h-2.633L628.254,1002.019z M621.833,958.941c0,1.271,0.224,2.385,0.67,3.314c0.438,0.944,1.06,1.772,1.87,2.486
	c0.802,0.727,1.719,1.349,2.771,1.888c1.07,0.508,2.229,0.993,3.463,1.42l1.209-17.936c-1.73,0.16-3.216,0.506-4.484,1.036
	c-1.252,0.524-2.291,1.183-3.107,1.991c-0.802,0.781-1.408,1.688-1.803,2.688C622.023,956.814,621.833,957.85,621.833,958.941z
	 M643.908,985.347c0-1.316-0.258-2.46-0.755-3.418c-0.477-0.955-1.152-1.773-1.996-2.465c-0.856-0.692-1.844-1.282-2.988-1.784
	c-1.136-0.509-2.345-0.975-3.655-1.4l-1.354,19.798c1.733-0.15,3.247-0.531,4.595-1.138c1.341-0.581,2.464-1.347,3.369-2.28
	c0.91-0.917,1.607-2.003,2.079-3.235C643.669,988.183,643.908,986.831,643.908,985.347z"/>
<g>
	<g>
		<defs>
			<path id="SVGID_3_" d="M868.815,957.958c0,2.043-1.663,3.709-3.703,3.709H379.048c-2.054,0-3.714-1.666-3.714-3.709V265.679
				c0-2.051,1.66-3.711,3.714-3.711h486.064c2.039,0,3.703,1.66,3.703,3.711V957.958z"/>
		</defs>
		<clipPath id="SVGID_4_">
			<use xlink:href="#SVGID_3_"  overflow="visible"/>
		</clipPath>
		<path opacity="0.1" clip-path="url(#SVGID_4_)" enable-background="new    " d="M701.891,528.853
			c-28.173,21.116-32.972,62.326-10.699,92.026c22.26,29.711,63.167,36.677,91.339,15.559c28.176-21.121,32.966-62.33,10.694-92.039
			C770.966,514.7,730.075,507.736,701.891,528.853z"/>
	</g>
	<g>
		<defs>
			<path id="SVGID_5_" d="M868.815,957.958c0,2.043-1.663,3.709-3.703,3.709H379.048c-2.054,0-3.714-1.666-3.714-3.709V265.679
				c0-2.051,1.66-3.711,3.714-3.711h486.064c2.039,0,3.703,1.66,3.703,3.711V957.958z"/>
		</defs>
		<clipPath id="SVGID_6_">
			<use xlink:href="#SVGID_5_"  overflow="visible"/>
		</clipPath>
		<path opacity="0.1" clip-path="url(#SVGID_6_)" enable-background="new    " d="M911.624,379.168
			c-8.096-7.205-18.004-11.267-28.504-12.497c-0.369-0.044-0.739-0.086-1.106-0.122c-20.068-1.953-42.178,6.542-58.161,24.512
			c-15.992,17.976-21.854,40.938-17.565,60.649c0.073,0.341,0.154,0.68,0.237,1.021c2.438,10.296,7.63,19.678,15.736,26.89
			c23.797,21.179,63.098,15.849,87.764-11.885C934.71,439.999,935.422,400.346,911.624,379.168z"/>
	</g>
	<g>
		<defs>
			<path id="SVGID_7_" d="M868.815,957.958c0,2.043-1.663,3.709-3.703,3.709H379.048c-2.054,0-3.714-1.666-3.714-3.709V265.679
				c0-2.051,1.66-3.711,3.714-3.711h486.064c2.039,0,3.703,1.66,3.703,3.711V957.958z"/>
		</defs>
		<clipPath id="SVGID_8_">
			<use xlink:href="#SVGID_7_"  overflow="visible"/>
		</clipPath>
		<path opacity="0.1" clip-path="url(#SVGID_8_)" enable-background="new    " d="M928.249,810.354
			c-8.943,0-16.488,5.961-18.897,14.118c-3.109-0.788-6.323-1.285-9.633-1.476v-13.517c0-10.884-8.832-19.722-19.721-19.722
			c-10.883,0-19.718,8.839-19.718,19.722v13.365h-9.495v-31.327c0-10.89-8.836-19.714-19.719-19.714
			c-10.888,0-19.715,8.824-19.715,19.714v31.438c-3.255,0.135-6.431,0.56-9.5,1.273v-93.662c0-10.885-8.831-19.717-19.721-19.717
			c-10.884,0-19.71,8.832-19.71,19.717v141.274c-0.038,0.738-0.115,1.466-0.115,2.213v49.136l-9.091-9.09v-39.381
			c0-16.081-13.03-29.117-29.123-29.117h-9.688c-0.416,0-0.807,0.052-1.218,0.08v36.465c-0.063-0.011-0.126-0.027-0.19-0.036v48.394
			l65.295,65.279v-1.386c9.185,8.721,21.563,14.106,35.228,14.106h83.228c28.285,0,51.219-22.934,51.219-51.224v-34.22v-49.007
			v-43.985C947.965,819.186,939.143,810.354,928.249,810.354z"/>
	</g>
</g>
<path fill="#FEC011" d="M784.641,517.214c22.271,29.708,17.481,70.918-10.694,92.04c-28.172,21.117-69.079,14.15-91.34-15.558
	c-22.27-29.702-17.474-70.909,10.7-92.027C721.491,480.553,762.381,487.516,784.641,517.214z"/>
<path fill="#F6871F" d="M783.212,518.288c21.592,28.801,18.793,67.372-6.249,86.147c-25.054,18.778-62.864,10.641-84.446-18.156
	c-21.587-28.804-18.789-67.369,6.268-86.147C723.827,481.363,761.628,489.492,783.212,518.288z"/>
<path fill="#FEC011" d="M773.579,525.508c17.002,22.683,14.788,53.053-4.925,67.841c-19.731,14.792-49.508,8.384-66.509-14.301
	c-16.992-22.673-14.786-53.043,4.94-67.831C726.812,496.431,756.579,502.834,773.579,525.508z"/>
<path fill="#F6871F" d="M753.437,578.285c-2.554,1.517-5.23,2.474-8.004,2.837c-2.773,0.376-5.491,0.229-8.183-0.389l-0.521-3.948
	c-0.05-0.358,0.017-0.705,0.145-1.045c0.129-0.358,0.341-0.636,0.612-0.839c0.38-0.273,0.95-0.378,1.737-0.302
	c0.806,0.081,1.746,0.12,2.854,0.165c1.095,0.039,2.312-0.04,3.664-0.232c1.332-0.19,2.734-0.708,4.204-1.521l-12.374-18.794
	c-1.728,0.551-3.479,1.043-5.251,1.432c-1.777,0.39-3.55,0.502-5.32,0.332c-1.777-0.176-3.513-0.75-5.252-1.735
	c-1.723-0.989-3.421-2.565-5.062-4.761c-1.243-1.658-2.162-3.477-2.797-5.472c-0.604-1.987-0.836-3.999-0.682-6.017
	c0.146-2.017,0.717-4.018,1.711-5.977c0.969-1.939,2.481-3.699,4.526-5.222l-3.406-5.154c-0.276-0.459-0.416-0.957-0.419-1.484
	c0.003-0.528,0.215-0.956,0.646-1.277l1.945-1.455l4.613,7.005c2.286-1.246,4.504-1.973,6.698-2.168
	c2.185-0.188,4.354-0.076,6.511,0.349l0.409,3.188c0.111,0.973-0.097,1.649-0.596,2.029c-0.274,0.202-0.713,0.307-1.339,0.33
	c-0.608,0.023-1.341,0.056-2.193,0.126c-0.846,0.044-1.779,0.176-2.795,0.362c-1.024,0.185-2.082,0.558-3.154,1.118l11.3,17.107
	c1.778-0.562,3.58-1.056,5.396-1.503c1.821-0.446,3.626-0.609,5.412-0.495c1.8,0.093,3.564,0.584,5.268,1.484
	c1.729,0.877,3.369,2.365,4.928,4.451c1.522,2.03,2.67,4.156,3.42,6.392c0.758,2.232,1.07,4.454,0.971,6.646
	c-0.109,2.206-0.675,4.352-1.667,6.425c-1.005,2.082-2.547,3.91-4.663,5.483l4.199,6.312c0.275,0.456,0.421,0.96,0.394,1.489
	c-0.031,0.519-0.237,0.935-0.644,1.237l-1.942,1.461L753.437,578.285z M721.198,545.203c0.817,1.084,1.687,1.9,2.615,2.442
	c0.933,0.557,1.919,0.92,2.97,1.074c1.059,0.178,2.133,0.19,3.261,0.066c1.107-0.153,2.285-0.38,3.458-0.704l-10.545-15.933
	c-1.167,1.089-2.057,2.218-2.658,3.361c-0.589,1.15-0.936,2.285-1.027,3.418c-0.093,1.114,0.039,2.222,0.38,3.28
	C719.991,543.281,720.505,544.266,721.198,545.203z M754.374,555.43c-0.847-1.126-1.746-1.958-2.73-2.491
	c-0.969-0.557-1.986-0.877-3.054-1.002c-1.076-0.114-2.182-0.066-3.354,0.134c-1.154,0.204-2.35,0.487-3.59,0.847l11.636,17.599
	c1.173-1.09,2.053-2.264,2.665-3.507c0.614-1.255,0.962-2.524,1.045-3.826c0.077-1.286-0.096-2.601-0.534-3.899
	C756.011,557.973,755.323,556.693,754.374,555.43z"/>
<path fill="#FEC011" d="M815.27,363.877c24.668-27.739,63.975-33.062,87.77-11.892c23.797,21.178,23.088,60.83-1.597,88.567
	c-24.67,27.735-63.97,33.064-87.766,11.885C789.88,431.266,790.59,391.614,815.27,363.877z"/>
<path fill="#F6871F" d="M816.438,364.917c23.919-26.891,59.955-33.898,80.46-15.648c20.521,18.252,17.756,54.855-6.173,81.743
	c-23.917,26.896-59.942,33.899-80.461,15.646C789.752,428.402,792.513,391.806,816.438,364.917z"/>
<path fill="#FEC011" d="M822.875,369.829c18.84-21.184,47.205-26.701,63.365-12.326c16.156,14.38,13.979,43.196-4.86,64.378
	c-18.831,21.163-47.204,26.686-63.361,12.315C801.863,419.82,804.036,391.002,822.875,369.829z"/>
<path fill="#F6871F" d="M874.226,375.161c1.726,1.954,2.944,4.164,3.623,6.615c0.695,2.442,0.911,4.962,0.668,7.575l-3.579,1.464
	c-0.321,0.126-0.661,0.157-0.997,0.126c-0.336-0.034-0.625-0.154-0.841-0.358c-0.304-0.271-0.474-0.777-0.506-1.515
	c-0.03-0.748-0.103-1.626-0.203-2.643c-0.1-1.017-0.324-2.106-0.672-3.302c-0.357-1.163-1-2.322-1.938-3.463l-15.828,15.979
	c0.733,1.442,1.403,2.92,1.979,4.447c0.592,1.526,0.916,3.122,0.986,4.782c0.053,1.671-0.255,3.403-0.947,5.239
	c-0.692,1.822-1.939,3.764-3.766,5.81c-1.369,1.545-2.947,2.837-4.713,3.912c-1.76,1.045-3.588,1.764-5.471,2.122
	c-1.895,0.373-3.811,0.341-5.744-0.078c-1.923-0.411-3.742-1.361-5.411-2.848l-4.337,4.401c-0.386,0.36-0.827,0.614-1.312,0.74
	c-0.498,0.132-0.92,0.039-1.267-0.273l-1.595-1.414l5.907-5.958c-1.45-1.782-2.393-3.626-2.847-5.591
	c-0.456-1.947-0.625-3.963-0.507-6.038l2.9-1.16c0.882-0.349,1.544-0.333,1.951,0.039c0.223,0.195,0.38,0.575,0.475,1.138
	c0.101,0.545,0.224,1.208,0.392,1.984c0.147,0.76,0.387,1.577,0.679,2.462c0.312,0.892,0.786,1.771,1.431,2.607l14.411-14.571
	c-0.749-1.494-1.431-3.027-2.074-4.569c-0.636-1.551-1.016-3.157-1.134-4.832c-0.147-1.662,0.09-3.397,0.704-5.185
	c0.59-1.801,1.762-3.67,3.505-5.614c1.677-1.9,3.509-3.47,5.479-4.708c1.971-1.249,3.982-2.086,6.028-2.543
	c2.052-0.44,4.107-0.455,6.142-0.063c2.062,0.405,3.945,1.36,5.673,2.897l5.304-5.401c0.391-0.366,0.834-0.621,1.316-0.721
	c0.495-0.114,0.908-0.031,1.239,0.271l1.596,1.417L874.226,375.161z M847.672,412.849c0.9-1.009,1.547-2.01,1.935-2.996
	c0.396-0.987,0.608-1.981,0.62-2.987c0.027-1-0.096-1.993-0.347-2.993c-0.279-0.983-0.64-1.996-1.084-2.992l-13.408,13.603
	c1.158,0.799,2.301,1.328,3.443,1.597c1.123,0.251,2.226,0.287,3.288,0.095c1.04-0.205,2.044-0.587,2.983-1.162
	C846.052,414.441,846.893,413.721,847.672,412.849z M852.953,379.97c-0.933,1.057-1.586,2.084-1.956,3.119
	c-0.386,1.02-0.559,2.036-0.536,3.037c0.033,1.009,0.208,2.01,0.551,3.035c0.322,1.009,0.734,2.032,1.215,3.08l14.832-15.012
	c-1.161-0.801-2.364-1.319-3.589-1.57c-1.235-0.258-2.45-0.258-3.661-0.005c-1.206,0.248-2.403,0.726-3.544,1.45
	C855.106,377.844,854.007,378.794,852.953,379.97z"/>
<path fill="#FF9F00" d="M920.144,807.966c-8.946,0-16.485,5.961-18.897,14.118c-3.111-0.788-6.325-1.286-9.634-1.475v-13.517
	c0-10.886-8.833-19.724-19.721-19.724c-10.883,0-19.718,8.839-19.718,19.724v13.364h-9.496V789.13
	c0-10.89-8.836-19.714-19.716-19.714c-10.891,0-19.719,8.824-19.719,19.714v31.437c-3.256,0.137-6.43,0.562-9.501,1.276v-93.664
	c0-10.884-8.83-19.716-19.719-19.716c-10.884,0-19.714,8.832-19.714,19.716v141.274c-0.034,0.737-0.112,1.468-0.112,2.215v49.135
	l-9.09-9.09v-39.381c0-16.081-13.031-29.116-29.121-29.116h-9.69c-0.413,0-0.805,0.051-1.218,0.076v36.468
	c-0.067-0.012-0.126-0.027-0.191-0.036v48.393l65.296,65.281v-1.386c9.187,8.722,21.564,14.105,35.229,14.105h83.228
	c28.285,0,51.219-22.934,51.219-51.223v-34.221v-49.006v-43.986C939.858,816.8,931.036,807.966,920.144,807.966z"/>
<path fill="#F3901D" d="M843.372,820.457h-0.694V789.13c0-10.89-8.836-19.714-19.716-19.714c-10.891,0-19.719,8.824-19.719,19.714
	v31.437c-3.256,0.137-6.43,0.562-9.501,1.276v-93.664c0-10.884-8.83-19.716-19.719-19.716c-10.884,0-19.714,8.832-19.714,19.716
	v141.274c-0.034,0.737-0.112,1.468-0.112,2.215v49.135l-9.09-9.09v-39.381c0-16.081-13.031-29.116-29.121-29.116h-9.69
	c-0.413,0-0.805,0.051-1.218,0.076v36.468c-0.067-0.012-0.126-0.027-0.191-0.036v48.393l65.296,65.281v-1.386
	c9.187,8.722,21.564,14.105,35.229,14.105h37.96L843.372,820.457L843.372,820.457z"/>
<path fill="#F3901D" d="M255.75,974.416c-34.155,0-61.945-27.789-61.945-61.946c0-34.154,27.79-61.944,61.945-61.944
	s61.946,27.79,61.946,61.944C317.696,946.626,289.905,974.416,255.75,974.416L255.75,974.416z M255.75,863.918
	c-26.77,0-48.551,21.781-48.551,48.552c0,26.769,21.782,48.552,48.551,48.552c26.771,0,48.552-21.783,48.552-48.552
	C304.302,885.699,282.52,863.918,255.75,863.918L255.75,863.918z"/>
<path fill="#F3901D" d="M255.75,953.197c-22.461,0-40.732-18.27-40.732-40.727c0-22.466,18.273-40.742,40.732-40.742
	c22.461,0,40.737,18.275,40.737,40.742C296.487,934.928,278.211,953.197,255.75,953.197L255.75,953.197z M255.75,878.424
	c-18.766,0-34.037,15.273-34.037,34.046c0,18.766,15.271,34.033,34.037,34.033c18.771,0,34.042-15.269,34.042-34.033
	C289.791,893.697,274.52,878.424,255.75,878.424L255.75,878.424z"/>
<path fill="#F3901D" d="M352.289,869.49h-70.314c-3.7,0-6.693-2.996-6.693-6.695c0-3.7,2.994-6.696,6.693-6.696h70.314
	c3.7,0,6.695,2.996,6.695,6.696C358.984,866.493,355.99,869.49,352.289,869.49L352.289,869.49z"/>
<path fill="#F3901D" d="M352.289,839.356h-91.523c-3.699,0-6.695-2.996-6.695-6.695s2.996-6.696,6.695-6.696h91.523
	c3.7,0,6.698,2.997,6.698,6.696S355.99,839.356,352.289,839.356L352.289,839.356z"/>
<path fill="#F3901D" d="M352.289,899.625h-37.95c-3.7,0-6.698-2.995-6.698-6.696c0-3.699,2.999-6.694,6.698-6.694h37.95
	c3.7,0,6.695,2.995,6.695,6.694C358.984,896.63,355.99,899.625,352.289,899.625L352.289,899.625z"/>
<path fill="#F3901D" d="M352.289,929.759h-37.95c-3.7,0-6.698-2.996-6.698-6.695c0-3.7,2.999-6.695,6.698-6.695h37.95
	c3.7,0,6.695,2.995,6.695,6.695C358.984,926.763,355.99,929.759,352.289,929.759L352.289,929.759z"/>
<path fill="#F3901D" d="M352.289,959.896h-55.808c-3.7,0-6.695-2.996-6.695-6.694c0-3.701,2.996-6.696,6.695-6.696h55.808
	c3.7,0,6.695,2.995,6.695,6.696C358.984,956.899,355.99,959.896,352.289,959.896L352.289,959.896z"/>
<path fill="#F3901D" d="M254.467,882.388c-1.357,0-2.028,0.9-2.028,2.708v3.412c-4.445,0.393-7.852,1.768-10.2,4.121
	c-2.349,2.369-3.521,5.389-3.521,9.09c0,2.838,0.595,5.153,1.8,6.957c1.202,1.806,2.766,3.193,4.702,4.174
	c1.935,0.969,4.342,1.855,7.218,2.655v14.974c-1.439-0.404-2.596-0.991-3.465-1.764c-0.872-0.786-1.517-1.636-1.957-2.563
	c-0.424-0.941-0.927-2.29-1.508-4.042c-0.258-0.824-0.721-1.453-1.382-1.911c-0.667-0.445-1.486-0.665-2.453-0.665
	c-1.204,0-2.205,0.405-3.012,1.239c-0.8,0.824-1.205,1.753-1.205,2.786c0,1.386,0.298,2.814,0.903,4.265
	c0.601,1.453,1.529,2.84,2.786,4.187c1.26,1.347,2.825,2.459,4.7,3.362c1.882,0.901,4.074,1.489,6.591,1.775v8.699
	c0,0.981,0.156,1.714,0.464,2.185c0.307,0.471,0.857,0.705,1.626,0.705c0.841,0,1.377-0.287,1.626-0.863
	c0.246-0.576,0.371-1.503,0.371-2.772v-8.017c3.065-0.263,5.723-1.059,7.958-2.419c2.23-1.348,3.921-3.1,5.072-5.231
	c1.148-2.131,1.721-4.434,1.721-6.88c0-1.95-0.357-3.755-1.076-5.39c-0.726-1.649-1.747-3.06-3.077-4.236
	c-1.247-1.141-2.661-2.015-4.236-2.614c-1.582-0.604-3.704-1.271-6.363-1.99v-13.407c2.708,0.892,4.417,2.669,5.117,5.352
	c0.631,2.272,1.992,3.411,4.096,3.411c1.113,0,2.062-0.392,2.854-1.176c0.785-0.786,1.176-1.715,1.176-2.786
	c0-0.969-0.268-2.027-0.791-3.192c-0.536-1.151-1.274-2.289-2.244-3.372c-1.215-1.439-2.655-2.512-4.295-3.234
	c-1.643-0.702-3.618-1.176-5.914-1.411v-3.479C256.527,883.263,255.84,882.388,254.467,882.388L254.467,882.388z M252.439,907.132
	c-1.934-0.716-3.373-1.502-4.314-2.365c-0.95-0.879-1.42-2.158-1.42-3.859c0-1.777,0.502-3.112,1.509-3.988
	c1.008-0.877,2.42-1.595,4.224-2.133L252.439,907.132L252.439,907.132z M256.527,930.807v-14.111
	c2.224,0.703,3.923,1.569,5.071,2.588c1.146,1.022,1.715,2.473,1.715,4.331c0,1.736-0.581,3.27-1.766,4.577
	C260.372,929.499,258.693,930.377,256.527,930.807L256.527,930.807z"/>
<path fill="#F3901D" d="M955.361,623.558c-24.425,0-44.298-19.874-44.298-44.3c0-24.426,19.873-44.298,44.298-44.298
	c24.426,0,44.299,19.872,44.299,44.298C999.659,603.684,979.786,623.558,955.361,623.558L955.361,623.558z M955.361,544.538
	c-19.144,0-34.72,15.575-34.72,34.72c0,19.145,15.576,34.721,34.72,34.721c19.145,0,34.721-15.576,34.721-34.721
	C990.081,560.112,974.505,544.538,955.361,544.538L955.361,544.538z"/>
<path fill="#F3901D" d="M955.361,608.384c-16.062,0-29.131-13.066-29.131-29.126c0-16.065,13.069-29.138,29.131-29.138
	c16.066,0,29.134,13.073,29.134,29.138C984.494,595.317,971.427,608.384,955.361,608.384L955.361,608.384z M955.361,554.911
	c-13.421,0-24.341,10.923-24.341,24.347c0,13.419,10.92,24.337,24.341,24.337c13.425,0,24.345-10.918,24.345-24.337
	C979.705,565.834,968.785,554.911,955.361,554.911L955.361,554.911z"/>
<path fill="#F3901D" d="M954.445,557.744c-0.969,0-1.451,0.646-1.451,1.937v2.441c-3.18,0.279-5.616,1.263-7.299,2.947
	c-1.677,1.691-2.515,3.853-2.515,6.499c0,2.033,0.426,3.689,1.288,4.977c0.858,1.291,1.979,2.283,3.361,2.985
	c1.385,0.693,3.108,1.327,5.164,1.9v10.707c-1.029-0.29-1.858-0.708-2.479-1.262c-0.624-0.562-1.087-1.168-1.399-1.833
	c-0.303-0.674-0.662-1.635-1.078-2.89c-0.185-0.59-0.515-1.039-0.987-1.367c-0.478-0.318-1.064-0.476-1.755-0.476
	c-0.863,0-1.578,0.292-2.158,0.887c-0.565,0.589-0.856,1.255-0.856,1.992c0,0.992,0.212,2.016,0.645,3.052
	c0.429,1.04,1.093,2.029,1.994,2.993c0.899,0.964,2.02,1.757,3.359,2.403c1.348,0.646,2.915,1.065,4.716,1.272v6.22
	c0,0.701,0.111,1.228,0.33,1.564c0.221,0.336,0.615,0.504,1.168,0.504c0.597,0,0.98-0.209,1.16-0.618
	c0.175-0.415,0.265-1.076,0.265-1.984v-5.73c2.189-0.19,4.09-0.757,5.689-1.733c1.594-0.961,2.805-2.215,3.63-3.738
	c0.818-1.527,1.231-3.172,1.231-4.922c0-1.393-0.256-2.685-0.771-3.856c-0.519-1.179-1.25-2.189-2.2-3.029
	c-0.893-0.816-1.902-1.439-3.03-1.869c-1.132-0.433-2.648-0.908-4.549-1.423v-9.59c1.937,0.64,3.156,1.909,3.66,3.828
	c0.447,1.627,1.423,2.438,2.929,2.438c0.793,0,1.473-0.279,2.04-0.841c0.561-0.562,0.84-1.223,0.84-1.992
	c0-0.689-0.191-1.447-0.566-2.283c-0.384-0.821-0.911-1.635-1.604-2.412c-0.868-1.029-1.896-1.797-3.069-2.311
	c-1.178-0.503-2.589-0.842-4.229-1.009v-2.489C955.918,558.37,955.426,557.744,954.445,557.744L954.445,557.744z M952.994,575.44
	c-1.385-0.513-2.414-1.076-3.09-1.692c-0.676-0.627-1.012-1.542-1.012-2.758c0-1.271,0.361-2.227,1.079-2.853
	c0.722-0.626,1.731-1.14,3.022-1.523V575.44L952.994,575.44z M955.918,592.371v-10.093c1.59,0.502,2.805,1.124,3.627,1.85
	c0.82,0.731,1.227,1.768,1.227,3.099c0,1.244-0.416,2.339-1.263,3.271C958.666,591.436,957.465,592.063,955.918,592.371
	L955.918,592.371z"/>
<path fill="#F3901D" d="M943.432,745.368c-17.35,0-31.465-14.115-31.465-31.465c0-17.352,14.115-31.466,31.465-31.466
	c17.351,0,31.464,14.114,31.464,31.466C974.896,731.254,960.782,745.368,943.432,745.368L943.432,745.368z M943.432,689.239
	c-13.597,0-24.662,11.066-24.662,24.664c0,13.596,11.065,24.663,24.662,24.663c13.598,0,24.663-11.066,24.663-24.663
	C968.096,700.306,957.031,689.239,943.432,689.239L943.432,689.239z"/>
<path fill="#F3901D" d="M943.432,734.593c-11.409,0-20.692-9.282-20.692-20.688c0-11.412,9.283-20.698,20.692-20.698
	c11.413,0,20.696,9.286,20.696,20.698C964.128,725.311,954.845,734.593,943.432,734.593L943.432,734.593z M943.432,696.609
	c-9.533,0-17.287,7.758-17.287,17.295c0,9.53,7.754,17.285,17.287,17.285c9.534,0,17.292-7.755,17.292-17.285
	C960.724,704.367,952.966,696.609,943.432,696.609L943.432,696.609z"/>
<path fill="#F3901D" d="M942.78,698.621c-0.69,0-1.029,0.458-1.029,1.378v1.731c-2.26,0.199-3.987,0.898-5.185,2.094
	c-1.19,1.201-1.785,2.739-1.785,4.617c0,1.445,0.301,2.62,0.913,3.534c0.609,0.917,1.406,1.623,2.39,2.12
	c0.98,0.492,2.204,0.942,3.667,1.352v7.604c-0.732-0.207-1.319-0.506-1.761-0.896c-0.442-0.399-0.772-0.831-0.991-1.302
	c-0.216-0.479-0.474-1.163-0.77-2.055c-0.132-0.418-0.367-0.738-0.702-0.97c-0.339-0.227-0.755-0.337-1.245-0.337
	c-0.613,0-1.122,0.207-1.536,0.628c-0.4,0.418-0.606,0.892-0.606,1.416c0,0.704,0.152,1.432,0.456,2.166
	c0.308,0.742,0.78,1.442,1.416,2.127c0.642,0.686,1.437,1.249,2.388,1.707c0.958,0.459,2.07,0.757,3.351,0.902v4.42
	c0,0.498,0.08,0.87,0.233,1.111c0.158,0.236,0.438,0.357,0.831,0.357c0.421,0,0.699-0.147,0.823-0.438
	c0.123-0.295,0.188-0.764,0.188-1.409v-4.071c1.558-0.134,2.907-0.538,4.039-1.23c1.137-0.683,1.997-1.576,2.581-2.657
	c0.582-1.085,0.875-2.252,0.875-3.495c0-0.989-0.182-1.905-0.552-2.739c-0.366-0.838-0.883-1.553-1.557-2.15
	c-0.64-0.578-1.353-1.023-2.153-1.327c-0.806-0.309-1.883-0.646-3.233-1.012v-6.81c1.375,0.453,2.244,1.354,2.602,2.72
	c0.319,1.153,1.007,1.731,2.08,1.731c0.563,0,1.048-0.2,1.449-0.598c0.397-0.4,0.601-0.869,0.601-1.414
	c0-0.492-0.142-1.029-0.405-1.624c-0.274-0.584-0.646-1.159-1.14-1.713c-0.617-0.729-1.35-1.274-2.183-1.641
	c-0.838-0.358-1.838-0.597-3.004-0.719v-1.764C943.826,699.066,943.478,698.621,942.78,698.621L942.78,698.621z M941.75,711.192
	c-0.982-0.366-1.714-0.766-2.192-1.204c-0.482-0.442-0.72-1.094-0.72-1.958c0-0.902,0.255-1.581,0.766-2.025
	c0.513-0.444,1.229-0.812,2.147-1.083L941.75,711.192L941.75,711.192z M943.826,723.218v-7.168c1.127,0.357,1.994,0.795,2.576,1.312
	c0.584,0.519,0.872,1.257,0.872,2.202c0,0.883-0.293,1.659-0.896,2.325C945.779,722.552,944.927,723,943.826,723.218
	L943.826,723.218z"/>
</svg>
